<svg data-v-423bf9ae="" xmlns="http://www.w3.org/2000/svg" viewBox="0 0 177.12962133757972 60" class="font"><!----><!----><!----><g data-v-423bf9ae="" id="9f9244c1-5d32-4f13-a24b-479c423d10bc" fill="black" transform="matrix(4.629629616002596,0,0,4.629629616002596,0.0000029451017411474822,-8.70370425205553)"><path d="M0 8.71L0.01 7.27L0.01 7.27Q0.01 5.94 0.25 4.12L0.25 4.12L0.25 4.12Q0.25 4.05 0.35 3.89L0.35 3.89L0.35 3.89Q0.53 3.71 0.83 3.67L0.83 3.67L0.83 3.67Q0.95 3.67 0.95 3.78L0.95 3.78L0.95 3.78Q0.67 5.26 0.67 8.11L0.67 8.11L0.67 8.11Q0.67 8.40 0.69 8.40L0.69 8.40L0.69 8.40Q0.71 8.40 0.78 8.31L0.78 8.31L0.78 8.31Q0.84 8.22 0.88 8.22L0.88 8.22L0.88 8.22Q1.09 8.22 1.11 8.32L1.11 8.32L1.11 8.32Q1.67 9.03 2.52 9.03L2.52 9.03L2.52 9.03Q3.15 9.03 3.66 8.74L3.66 8.74L3.66 8.74Q4.17 8.44 4.47 8.03L4.47 8.03L4.47 8.03Q4.76 7.62 4.96 7.13L4.96 7.13L4.96 7.13Q5.31 6.31 5.31 5.68L5.31 5.68L5.31 5.68Q5.31 5.05 5.00 4.54L5.00 4.54L5.00 4.54Q4.70 4.02 4.23 4.02L4.23 4.02L4.23 4.02Q4.16 4.02 4.07 4.08L4.07 4.08L4.07 4.08Q3.98 4.14 3.90 4.14L3.90 4.14L3.90 4.14Q3.82 4.14 3.72 4.08L3.72 4.08L3.72 4.08Q3.63 4.02 3.63 3.95L3.63 3.95L3.63 3.95Q3.63 3.63 4.20 3.14L4.20 3.14L4.20 3.14Q4.77 2.66 5.14 2.66L5.14 2.66L5.14 2.66Q5.87 2.66 6.23 3.13L6.23 3.13L6.23 3.13Q6.59 3.60 6.59 4.51L6.59 4.51L6.59 4.51Q6.59 5.43 6.09 6.59L6.09 6.59L6.09 6.59Q5.59 7.76 4.62 8.62L4.62 8.62L4.62 8.62Q3.65 9.48 2.52 9.48L2.52 9.48L2.52 9.48Q2.04 9.48 1.78 9.36L1.78 9.36L1.78 9.36Q1.51 9.24 1.47 9.24L1.47 9.24L1.47 9.24Q1.43 9.24 1.43 9.32L1.43 9.32L1.43 9.32Q1.43 9.39 1.48 9.56L1.48 9.56L1.48 9.56Q2.49 11.33 3.64 12.27L3.64 12.27L3.64 12.27Q4.79 13.22 5.92 13.22L5.92 13.22L5.92 13.22Q6.33 13.22 6.50 13.08L6.50 13.08L6.50 13.08Q6.68 12.95 6.78 12.85L6.78 12.85L6.78 12.85Q6.96 12.67 7.06 12.67L7.06 12.67L7.06 12.67Q7.15 12.67 7.24 12.80L7.24 12.80L7.24 12.80Q7.32 12.92 7.32 13.02L7.32 13.02L7.32 13.02Q7.32 13.51 6.45 14.13L6.45 14.13L6.45 14.13Q5.57 14.74 4.41 14.74L4.41 14.74L4.41 14.74Q3.16 14.74 2.48 14.06L2.48 14.06L2.48 14.06Q2.13 13.71 1.88 13.36L1.88 13.36L1.88 13.36Q1.64 13.01 1.44 12.47L1.44 12.47L1.44 12.47Q1.25 11.93 1.15 11.58L1.15 11.58L1.15 11.58Q1.05 11.23 0.92 10.65L0.92 10.65L0.92 10.65Q0.73 9.83 0.69 9.83L0.69 9.83L0.69 9.83Q0.64 9.83 0.64 9.94L0.64 9.94L0.63 11.17L0.63 11.17Q0.63 12.92 0.77 14.13L0.77 14.13L0.77 14.13Q0.77 14.21 0.61 14.37L0.61 14.37L0.61 14.37Q0.45 14.53 0.28 14.53L0.28 14.53L0.28 14.53Q0.11 14.53 0.11 14.24L0.11 14.24L0.11 14.24Q0.11 14.13 0.08 13.57L0.08 13.57L0.08 13.57Q0 11.89 0 10.60L0 10.60L0 8.71ZM15.22 3.70L15.22 3.70Q15.82 3.70 16.11 3.96L16.11 3.96L16.11 3.96Q16.41 4.23 16.41 4.65L16.41 4.65L16.41 4.65Q16.41 5.08 16.06 5.39L16.06 5.39L16.06 5.39Q15.71 5.70 15.50 5.70L15.50 5.70L15.50 5.70Q15.29 5.70 15.27 5.50L15.27 5.50L15.27 5.50Q15.25 5.17 14.83 4.87L14.83 4.87L14.83 4.87Q14.42 4.58 13.99 4.58L13.99 4.58L13.99 4.58Q12.88 4.58 11.73 5.63L11.73 5.63L11.73 5.63Q10.58 6.68 9.90 8.04L9.90 8.04L9.90 8.04Q9.21 9.39 9.21 10.33L9.21 10.33L9.21 10.33Q9.21 11.27 9.61 11.86L9.61 11.86L9.61 11.86Q10.01 12.46 10.78 12.46L10.78 12.46L10.78 12.46Q12.01 12.46 13.45 10.29L13.45 10.29L13.45 10.29Q14.13 9.30 14.81 7.38L14.81 7.38L14.81 7.38Q15.06 6.69 15.08 6.68L15.08 6.68L15.08 6.68Q15.19 6.38 15.44 6.38L15.44 6.38L15.44 6.38Q15.57 6.38 15.65 6.46L15.65 6.46L15.65 6.46Q15.72 6.54 15.72 6.64L15.72 6.64L15.72 6.64Q15.72 6.75 15.68 6.87L15.68 6.87L15.68 6.87Q15.27 8.36 15.27 9.71L15.27 9.71L15.27 9.71Q15.27 11.06 15.74 11.96L15.74 11.96L15.74 11.96Q16.20 12.85 16.97 12.85L16.97 12.85L16.97 12.85Q17.36 12.85 17.67 12.60L17.67 12.60L17.67 12.60Q17.77 12.52 17.86 12.52L17.86 12.52L17.86 12.52Q18.03 12.52 18.03 12.67L18.03 12.67L18.03 12.67Q18.03 13.44 17.12 14.10L17.12 14.10L17.12 14.10Q16.21 14.77 15.32 14.77L15.32 14.77L15.32 14.77Q13.87 14.77 13.87 12.78L13.87 12.78L13.87 12.78Q13.87 11.98 14.08 10.99L14.08 10.99L14.08 10.99Q14.28 10.00 14.28 9.96L14.28 9.96L14.28 9.96Q14.28 9.93 14.22 9.93L14.22 9.93L14.22 9.93Q14.17 9.93 14.10 10.05L14.10 10.05L14.10 10.05Q13.30 12.04 11.91 13.39L11.91 13.39L11.91 13.39Q10.53 14.74 9.37 14.74L9.37 14.74L9.37 14.74Q8.20 14.74 7.70 13.85L7.70 13.85L7.70 13.85Q7.35 13.24 7.35 12.36L7.35 12.36L7.35 12.36Q7.35 10.63 8.53 8.59L8.53 8.59L8.53 8.59Q9.72 6.55 11.59 5.12L11.59 5.12L11.59 5.12Q13.45 3.70 15.22 3.70L15.22 3.70ZM20.76 12.05L20.78 11.70L20.76 9.94L20.76 9.94Q20.76 8.09 20.85 7.15L20.85 7.15L20.85 7.15Q20.93 6.22 20.93 6.16L20.93 6.16L20.93 6.16Q21.08 5.67 21.52 5.67L21.52 5.67L21.52 5.67Q21.62 5.67 21.62 5.78L21.62 5.78L21.62 5.78Q21.62 5.80 21.59 6.01L21.59 6.01L21.59 6.01Q21.34 7.97 21.34 11.19L21.34 11.19L21.34 11.19Q21.34 11.58 21.45 12.98L21.45 12.98L21.45 12.98Q21.56 14.38 21.55 14.61L21.55 14.61L21.55 14.61Q21.53 14.84 21.32 14.84L21.32 14.84L21.32 14.84Q20.87 14.80 20.34 14.14L20.34 14.14L20.34 14.14Q19.80 13.48 19.33 12.47L19.33 12.47L19.33 12.47Q18.87 11.47 18.56 10.12L18.56 10.12L18.56 10.12Q18.26 8.78 18.26 7.49L18.26 7.49L18.26 7.49Q18.26 6.20 18.79 4.80L18.79 4.80L18.79 4.80Q19.10 4.02 19.52 3.37L19.52 3.37L19.52 3.37Q19.95 2.73 20.65 2.30L20.65 2.30L20.65 2.30Q21.35 1.88 22.19 1.88L22.19 1.88L22.19 1.88Q23.74 1.88 24.72 3.23L24.72 3.23L24.72 3.23Q25.69 4.58 25.69 6.30L25.69 6.30L25.69 6.30Q25.69 8.32 24.39 9.34L24.39 9.34L24.39 9.34Q23.69 9.90 22.69 10.01L22.69 10.01L22.69 10.01Q22.60 10.04 22.60 10.12L22.60 10.12L22.60 10.12Q22.60 10.40 23.12 11.14L23.12 11.14L23.12 11.14Q23.65 11.87 24.54 12.59L24.54 12.59L24.54 12.59Q25.42 13.31 26.22 13.38L26.22 13.38L26.22 13.38Q26.74 13.38 27.12 12.98L27.12 12.98L27.12 12.98Q27.26 12.81 27.34 12.81L27.34 12.81L27.34 12.81Q27.59 12.96 27.59 13.13L27.59 13.13L27.59 13.13Q27.59 13.31 27.24 13.68L27.24 13.68L27.24 13.68Q26.89 14.06 26.57 14.29L26.57 14.29L26.57 14.29Q25.83 14.84 24.90 14.84L24.90 14.84L24.90 14.84Q23.97 14.84 23.30 14.28L23.30 14.28L23.30 14.28Q22.64 13.72 22.29 12.81L22.29 12.81L22.29 12.81Q21.60 11.03 21.60 9.06L21.60 9.06L21.60 9.06Q21.60 8.85 21.76 8.85L21.76 8.85L21.76 8.85Q21.81 8.86 21.95 8.97L21.95 8.97L21.95 8.97Q22.36 9.30 22.90 9.35L22.90 9.35L22.90 9.35Q23.53 9.35 23.86 8.81L23.86 8.81L23.86 8.81Q24.19 8.27 24.19 7.38L24.19 7.38L24.19 7.38Q24.19 6.50 23.87 5.56L23.87 5.56L23.87 5.56Q23.55 4.63 22.82 3.93L22.82 3.93L22.82 3.93Q22.09 3.23 21.14 3.23L21.14 3.23L21.14 3.23Q20.40 3.23 19.65 4.34L19.65 4.34L19.65 4.34Q18.90 5.45 18.90 6.99L18.90 6.99L18.90 6.99Q18.90 8.16 19.36 9.60L19.36 9.60L19.36 9.60Q19.82 11.03 20.71 12.17L20.71 12.17L20.72 12.17L20.72 12.17Q20.76 12.17 20.76 12.05L20.76 12.05ZM35.45 3.70L35.45 3.70Q36.05 3.70 36.34 3.96L36.34 3.96L36.34 3.96Q36.64 4.23 36.64 4.65L36.64 4.65L36.64 4.65Q36.64 5.08 36.29 5.39L36.29 5.39L36.29 5.39Q35.94 5.70 35.73 5.70L35.73 5.70L35.73 5.70Q35.52 5.70 35.50 5.50L35.50 5.50L35.50 5.50Q35.48 5.17 35.06 4.87L35.06 4.87L35.06 4.87Q34.65 4.58 34.22 4.58L34.22 4.58L34.22 4.58Q33.11 4.58 31.96 5.63L31.96 5.63L31.96 5.63Q30.81 6.68 30.13 8.04L30.13 8.04L30.13 8.04Q29.44 9.39 29.44 10.33L29.44 10.33L29.44 10.33Q29.44 11.27 29.84 11.86L29.84 11.86L29.84 11.86Q30.24 12.46 31.01 12.46L31.01 12.46L31.01 12.46Q32.24 12.46 33.68 10.29L33.68 10.29L33.68 10.29Q34.36 9.30 35.04 7.38L35.04 7.38L35.04 7.38Q35.29 6.69 35.31 6.68L35.31 6.68L35.31 6.68Q35.42 6.38 35.67 6.38L35.67 6.38L35.67 6.38Q35.80 6.38 35.88 6.46L35.88 6.46L35.88 6.46Q35.95 6.54 35.95 6.64L35.95 6.64L35.95 6.64Q35.95 6.75 35.91 6.87L35.91 6.87L35.91 6.87Q35.50 8.36 35.50 9.71L35.50 9.71L35.50 9.71Q35.50 11.06 35.97 11.96L35.97 11.96L35.97 11.96Q36.43 12.85 37.20 12.85L37.20 12.85L37.20 12.85Q37.59 12.85 37.90 12.60L37.90 12.60L37.90 12.60Q38.00 12.52 38.09 12.52L38.09 12.52L38.09 12.52Q38.26 12.52 38.26 12.67L38.26 12.67L38.26 12.67Q38.26 13.44 37.35 14.10L37.35 14.10L37.35 14.10Q36.44 14.77 35.55 14.77L35.55 14.77L35.55 14.77Q34.10 14.77 34.10 12.78L34.10 12.78L34.10 12.78Q34.10 11.98 34.31 10.99L34.31 10.99L34.31 10.99Q34.51 10.00 34.51 9.96L34.51 9.96L34.51 9.96Q34.51 9.93 34.45 9.93L34.45 9.93L34.45 9.93Q34.40 9.93 34.33 10.05L34.33 10.05L34.33 10.05Q33.53 12.04 32.14 13.39L32.14 13.39L32.14 13.39Q30.76 14.74 29.60 14.74L29.60 14.74L29.60 14.74Q28.43 14.74 27.93 13.85L27.93 13.85L27.93 13.85Q27.58 13.24 27.58 12.36L27.58 12.36L27.58 12.36Q27.58 10.63 28.76 8.59L28.76 8.59L28.76 8.59Q29.95 6.55 31.82 5.12L31.82 5.12L31.82 5.12Q33.68 3.70 35.45 3.70L35.45 3.70Z"></path></g><!----><!----></svg>